<mxfile host="app.diagrams.net" modified="2023-11-07T17:48:57.539Z" agent="Mozilla/5.0 (Windows NT 10.0; Win64; x64) AppleWebKit/537.36 (KHTML, like Gecko) Chrome/119.0.0.0 Safari/537.36" version="22.0.8" etag="HE5wr0avjUEamnpxWrWL" type="github">
  <diagram name="PÃ¡gina-1" id="l_rwxoi40n1eA6QKdcqs">
    <mxGraphModel>
      <root>
        <mxCell id="0" />
        <mxCell id="1" parent="0" />
      </root>
    </mxGraphModel>
  </diagram>
</mxfile>
